{"title":"J_Fallon_Black_Mountain_20100901_Video_And_MP3","uid":5810863,"size":312524975,"categoryP":"video","categoryS":"tv_shows","magnet":"?xt=urn:btih:ff1f427aac98185d9b6908f03a8db08f0b14b259&amp;dn=J_Fallon_Black_Mountain_20100901_Video_And_MP3&amp;tr=udp%3A%2F%2Ftracker.openbittorrent.com%3A80&amp;tr=udp%3A%2F%2Fopen.demonii.com%3A1337&amp;tr=udp%3A%2F%2Ftracker.coppersurfer.tk%3A6969&amp;tr=udp%3A%2F%2Fexodus.desync.com%3A6969","seeders":0,"leechers":0,"uploader":"thetorrentlord","files":3,"time":1283624994,"description":"Cut from HD broadcast and compressed with SUPER.                                                        General\n                   \nFormat                           : AVI\nFormat/Info                      : Audio Video Interleave\nFile size                        : 136 MiB\nDuration                         : 4mn 9s\nOverall bit rate                 : 4 563 Kbps\n                      \nDirector                         : created.with.SUPER(C).v2010.bld.37\nWriting application              : SUPER(C)   \n\nVideo\nID                               : 0\nFormat                           : MPEG-4 Visual\nFormat profile                   : Simple@L3\nFormat settings, BVOP            : No\nFormat settings, QPel            : No\nFormat settings, GMC             : No warppoints\nFormat settings, Matrix          : Default (H.263)\nCodec ID                         : XVID\nCodec ID/Hint                    : XviD\nDuration                         : 4mn 9s\nBit rate                         : 4 361 Kbps\nWidth                            : 1 280 pixels\nHeight                           : 720 pixels\nDisplay aspect ratio             : 16:9\nFrame rate                       : 29.970 fps\nColor space                      : YUV\nChroma subsampling               : 4:2:0\nBit depth                        : 8 bits\nScan type                        : Progressive\nBits/(Pixel*Frame)               : 0.158\nStream size                      : 130 MiB (96%)\nWriting library                  : XviD 1.1.2 (UTC 2006-11-01)\n\nAudio\nID                               : 1\nFormat                           : MPEG Audio\nFormat version                   : Version 1\nFormat profile                   : Layer 3\nMode                             : Joint stereo\nMode extension                   : MS Stereo\nCodec ID                         : 55\nCodec ID/Hint                    : MP3\nDuration                         : 4mn 9s\nBit rate mode                    : Constant\nBit rate                         : 192 Kbps\nChannel(s)                       : 2 channels\nSampling rate                    : 32.0 KHz\nStream size                      : 5.71 MiB (4%)\nAlignment                        : Aligned on interleaves\nInterleave, duration             : 36 ms (1.08 video frame)\nWriting library                  : LAME3.98\n\n","torrent":{"xt":"urn:btih:ff1f427aac98185d9b6908f03a8db08f0b14b259","amp;dn":"J_Fallon_Black_Mountain_20100901_Video_And_MP3","amp;tr":["udp%3A%2F%2Ftracker.openbittorrent.com%3A80","udp%3A%2F%2Fopen.demonii.com%3A1337","udp%3A%2F%2Ftracker.coppersurfer.tk%3A6969","udp%3A%2F%2Fexodus.desync.com%3A6969"],"infoHash":"ff1f427aac98185d9b6908f03a8db08f0b14b259","infoHashBuffer":{"type":"Buffer","data":[255,31,66,122,172,152,24,93,155,105,8,240,58,141,176,143,11,20,178,89]},"announce":[],"urlList":[]}}